<svg width="40" height="40" viewBox="0 0 40 40" fill="none" xmlns="http://www.w3.org/2000/svg">
    <rect width="40" height="40" rx="10" fill="#FFB344"/>
    <path fill-rule="evenodd" clip-rule="evenodd" d="M28.7179 18.4615C28.718 18.4615 28.718 18.4615 28.718 18.4615C32.6831 18.4615 35.8975 15.2472 35.8975 11.282C35.8975 7.31693 32.6831 4.10256 28.718 4.10256C28.718 4.10256 28.718 4.10256 28.7179 4.10256H21.5385V18.4615H28.7179Z" fill="#3D2C8D"/>
    <path fill-rule="evenodd" clip-rule="evenodd" d="M11.2821 21.5385C11.282 21.5385 11.282 21.5385 11.282 21.5385C7.31691 21.5385 4.10254 24.7528 4.10254 28.7179C4.10254 32.6831 7.31691 35.8974 11.282 35.8974C11.282 35.8974 11.282 35.8974 11.2821 35.8974H18.4615L18.4615 21.5385H11.2821Z" fill="#3D2C8D"/>
    <path fill-rule="evenodd" clip-rule="evenodd" d="M21.5385 28.7179L21.5385 21.5385L28.7088 21.5385C28.7119 21.5385 28.7149 21.5385 28.718 21.5385C28.721 21.5385 28.7241 21.5385 28.7271 21.5385H35.8975L35.8975 28.7179C35.8975 28.7179 35.8975 28.7179 35.8975 28.7179C35.8975 32.6831 32.6831 35.8974 28.718 35.8974C24.7529 35.8974 21.5385 32.6831 21.5385 28.7179Z" fill="#3D2C8D"/>
    <path fill-rule="evenodd" clip-rule="evenodd" d="M18.4615 11.282V18.4615H4.10254L4.10254 11.282C4.10254 7.31693 7.3169 4.10256 11.282 4.10256C15.2471 4.10256 18.4615 7.31693 18.4615 11.282Z" fill="#3D2C8D"/>
</svg>
