<svg width="120" height="120" viewBox="0 0 120 120" fill="none" xmlns="http://www.w3.org/2000/svg">
  <path d="M77.5 55C81.6421 55 85 51.6421 85 47.5C85 43.3579 81.6421 40 77.5 40C73.3579 40 70 43.3579 70 47.5C70 51.6421 73.3579 55 77.5 55Z" fill="#57CC99" />
  <path d="M42.5 55C46.6421 55 50 51.6421 50 47.5C50 43.3579 46.6421 40 42.5 40C38.3579 40 35 43.3579 35 47.5C35 51.6421 38.3579 55 42.5 55Z" fill="#57CC99" />
  <path d="M60 80C52.6 80 46.25 75.95 42.75 70H34.4C38.4 80.25 48.35 87.5 60 87.5C71.65 87.5 81.6 80.25 85.6 70H77.25C73.75 75.95 67.4 80 60 80ZM59.95 10C32.35 10 10 32.4 10 60C10 87.6 32.35 110 59.95 110C87.6 110 110 87.6 110 60C110 32.4 87.6 10 59.95 10ZM60 100C37.9 100 20 82.1 20 60C20 37.9 37.9 20 60 20C82.1 20 100 37.9 100 60C100 82.1 82.1 100 60 100Z" fill="#57CC99" />
</svg>